<?xml version="1.0" encoding="utf-8"?>
<!-- Generator: Adobe Illustrator 17.0.0, SVG Export Plug-In . SVG Version: 6.00 Build 0)  -->
<!DOCTYPE svg PUBLIC "-//W3C//DTD SVG 1.1//EN" "http://www.w3.org/Graphics/SVG/1.1/DTD/svg11.dtd">
<svg version="1.1" id="图层_1" xmlns="http://www.w3.org/2000/svg" xmlns:xlink="http://www.w3.org/1999/xlink" x="0px" y="0px"
	 width="111.5px" height="112.063px" viewBox="0 0 111.5 112.063" enable-background="new 0 0 111.5 112.063" xml:space="preserve">
<path d="M60.917,60.862c0,6.967,0,13.231,0,19.833c-3.404,0-6.447,0-9.864,0c0-6.313,0-12.579,0-19.39c-6.721,0-13.113,0-19.837,0
	c0-3.58,0-6.623,0-10.039c6.312,0,12.579,0,19.391,0c0-6.721,0-13.11,0-19.837c3.579,0,6.622,0,10.041,0c0,6.313,0,12.58,0,19.391
	c6.723,0,13.112,0,19.837,0c0,3.58,0,6.623,0,10.042C74.174,60.862,67.908,60.862,60.917,60.862z"/>
<path d="M109.244,112.057H2.456c-1.28,0-2.322-1.202-2.322-2.679V2.747c0-1.477,1.042-2.679,2.322-2.679h106.788
	c1.28,0,2.322,1.202,2.322,2.679v106.631C111.566,110.855,110.524,112.057,109.244,112.057z M2.456,2.068
	c-0.083,0-0.322,0.233-0.322,0.679v106.631c0,0.445,0.239,0.679,0.322,0.679h106.788c0.083,0,0.322-0.233,0.322-0.679V2.747
	c0-0.445-0.239-0.679-0.322-0.679H2.456z"/>
</svg>
